<svg width="32" height="27" viewBox="0 0 32 27" fill="none" xmlns="http://www.w3.org/2000/svg">
<g clip-path="url(#clip0)">
<path d="M26.8986 18.3879H9.04348C8.57971 18.3879 8.11594 17.9224 8.11594 17.4569C8.11594 16.7586 8.57971 16.2931 9.04348 16.2931H25.5072L29.2174 8.14655H6.49275L5.33333 3.49138C5.10145 2.56034 4.17391 1.86207 3.01449 1.86207H0.927536C0.463768 1.86207 0 1.39655 0 0.931034C0 0.465517 0.463768 0 0.927536 0H3.01449C4.86957 0 6.49275 1.39655 7.18841 3.02586L7.88406 6.28448H32.2319L26.8986 18.3879Z" fill="#137A3A"/>
<path d="M11.3623 27C12.643 27 13.6811 25.9579 13.6811 24.6724C13.6811 23.3869 12.643 22.3448 11.3623 22.3448C10.0816 22.3448 9.04346 23.3869 9.04346 24.6724C9.04346 25.9579 10.0816 27 11.3623 27Z" fill="#137A3A"/>
<path d="M23.6521 27C24.9328 27 25.9709 25.9579 25.9709 24.6724C25.9709 23.3869 24.9328 22.3448 23.6521 22.3448C22.3714 22.3448 21.3333 23.3869 21.3333 24.6724C21.3333 25.9579 22.3714 27 23.6521 27Z" fill="#137A3A"/>
<path d="M28.2899 13.2672H7.88408C7.42031 13.2672 6.95654 12.8017 6.95654 12.3362C6.95654 11.8707 7.42031 11.4052 7.88408 11.4052H28.2899C28.7536 11.4052 29.2174 11.8707 29.2174 12.3362C29.2174 12.8017 28.7536 13.2672 28.2899 13.2672Z" fill="#137A3A"/>
</g>
<defs>
<clipPath id="clip0">
<rect width="32" height="27" fill="white"/>
</clipPath>
</defs>
</svg>
