<svg width="216" height="53" viewBox="0 0 216 53" fill="none" xmlns="http://www.w3.org/2000/svg">
<g clip-path="url(#clip0)">
<path d="M81.8835 38.5455H75.6776L64.3001 20.9935C63.6105 19.9611 63.0934 19.1007 62.921 18.5844C63.0934 19.6169 63.0934 21.1656 63.0934 23.0585V38.5455H57.2322V10.4968H63.7829L74.6433 27.5325C75.1604 28.2208 75.6776 29.0812 76.0223 29.7695C75.85 29.0812 75.85 27.8766 75.85 25.9838V10.4968H81.7111V38.5455H81.8835Z" fill="#1C1C1A"/>
<path d="M104.466 38.5455H88.0894V10.4968H103.949V15.6591H94.2953V21.8539H103.259V27.0162H94.2953V33.3831H104.466V38.5455Z" fill="#1C1C1A"/>
<path d="M145.494 10.4968L138.254 38.5455H131.358L126.876 20.4773C126.704 19.6169 126.532 18.4124 126.359 17.3799C126.187 18.5844 126.014 19.789 125.842 20.4773L121.188 38.5455H114.12L106.879 10.4968H113.603L117.395 29.2533C117.567 30.1136 117.74 31.1461 117.74 32.5227H117.912C117.912 31.4903 118.085 30.4578 118.429 29.2533L123.429 10.6688H129.979L134.634 29.2533C134.806 29.9416 134.978 30.974 135.151 32.3507C135.151 31.3182 135.323 30.2857 135.496 29.2533L139.288 10.4968H145.494Z" fill="#1C1C1A"/>
<path d="M171.869 38.5455H164.112L156.182 26.3279C156.01 26.1559 155.837 25.6396 155.492 24.7792H155.148V38.5455H148.942V10.4968H155.148V23.7468H155.32C155.492 23.4026 155.665 22.8864 156.01 22.1981L163.595 10.4968H171.007L161.526 23.9188L171.869 38.5455Z" fill="#137A3A"/>
<path d="M190.832 38.5455H174.455V10.4968H190.314V15.6591H180.661V21.8539H189.625V27.0162H180.661V33.3831H190.832V38.5455Z" fill="#137A3A"/>
<path d="M216 10.4968L207.036 28.5649V38.5455H200.83V28.737L192.211 10.4968H199.279L203.761 20.9935C203.761 21.1656 204.105 22.026 204.45 23.2305C204.623 22.3701 204.795 21.5098 204.967 20.9935L209.449 10.4968H216Z" fill="#137A3A"/>
<path d="M11.3775 19.6169C12.4118 19.6169 13.2737 18.7565 13.2737 17.724C13.2737 16.6916 12.4118 15.8312 11.3775 15.8312C10.3432 15.8312 9.48123 16.6916 9.48123 17.724C9.48123 18.7565 10.3432 19.6169 11.3775 19.6169Z" fill="#1C1C1A"/>
<path d="M20.514 0C12.2394 0 4.82682 3.78571 0 9.63636C1.37909 9.80844 2.58579 10.3247 3.62011 10.8409C3.62011 10.8409 33.6153 14.9708 43.6137 21.6818C41.0279 21.5097 38.4421 21.5097 35.8563 21.5097C32.7534 21.5097 29.6504 21.8539 26.3751 22.1981C23.2721 22.5422 20.1692 23.2305 17.0662 23.4026C15.5148 23.5747 13.9633 23.5747 12.4118 23.5747C10.8603 23.5747 9.30886 23.5747 7.75738 23.2305C9.30886 23.7468 10.8603 23.7468 12.4118 23.9188C13.9633 24.0909 15.5148 24.0909 17.0662 23.9188C18.6177 23.9188 20.1692 23.7468 21.7207 23.7468C23.2721 23.5747 24.8236 23.4026 26.3751 23.4026C29.4781 23.2305 32.581 23.2305 35.684 23.4026C37.5802 23.5747 39.6488 23.7468 41.5451 23.9188C34.3049 26.3279 16.0319 32.6948 9.82602 38.5455C7.75738 41.8149 6.37829 44.0519 7.24022 49.5584C11.2051 51.7955 15.6872 53.1721 20.514 53.1721C35.1668 53.1721 47.0615 41.2987 47.0615 26.6721C47.0615 11.8734 35.1668 0 20.514 0Z" fill="#137A3A"/>
</g>
<defs>
<clipPath id="clip0">
<rect width="216" height="53" fill="white"/>
</clipPath>
</defs>
</svg>
